<svg width="25" height="24" viewBox="0 0 25 24" fill="none" xmlns="http://www.w3.org/2000/svg">
<path d="M12.5898 0.560794C9.44632 0.528851 6.41875 1.74631 4.17249 3.9456C1.92623 6.1449 0.645074 9.14607 0.610596 12.2895C0.622708 14.7738 1.42185 17.1903 2.89325 19.1919C4.36464 21.1936 6.43258 22.6774 8.80002 23.4302C9.39899 23.5391 9.61679 23.1797 9.61679 22.8639C9.61679 22.5481 9.61679 21.8511 9.61679 20.871C6.28439 21.5789 5.57653 19.3028 5.57653 19.3028C5.35469 18.5883 4.88307 17.9775 4.24792 17.5822C3.1589 16.8634 4.33504 16.8743 4.33504 16.8743C4.71146 16.9246 5.07161 17.0595 5.38846 17.2689C5.70532 17.4782 5.97066 17.7566 6.1646 18.0831C6.50255 18.6691 7.05709 19.0991 7.70884 19.2803C8.36059 19.4616 9.05746 19.3797 9.64946 19.0523C9.71034 18.456 9.9804 17.9004 10.4118 17.4842C7.75457 17.1901 4.96667 16.1882 4.96667 11.6906C4.94291 10.5174 5.37641 9.38089 6.17549 8.52153C5.81157 7.51426 5.85454 6.40481 6.29528 5.42871C6.29528 5.42871 7.30807 5.1129 9.56234 6.62663C11.5246 6.10373 13.5896 6.10373 15.5519 6.62663C17.8389 5.1129 18.819 5.42871 18.819 5.42871C19.2597 6.40481 19.3027 7.51426 18.9388 8.52153C19.7564 9.36514 20.2134 10.494 20.213 11.6688C20.213 16.1773 17.4033 17.1683 14.7679 17.4624C15.0564 17.7426 15.2793 18.0832 15.4206 18.4598C15.5618 18.8364 15.6178 19.2396 15.5846 19.6404V22.853C15.5846 22.853 15.8024 23.5391 16.4014 23.4193C18.7621 22.6618 20.8231 21.1776 22.2899 19.1788C23.7568 17.18 24.5544 14.7688 24.569 12.2895C24.5346 9.14607 23.2534 6.1449 21.0071 3.9456C18.7609 1.74631 15.7333 0.528851 12.5898 0.560794Z" fill="black"/>
</svg>
