<svg width="27" height="27" viewBox="0 0 27 27" fill="none" xmlns="http://www.w3.org/2000/svg">
<path d="M24.2319 0.219425H2.38281C2.1372 0.215902 1.89333 0.26238 1.66512 0.356205C1.43691 0.45003 1.22884 0.589364 1.05277 0.76625C0.876709 0.943135 0.736109 1.15411 0.639001 1.38712C0.541894 1.62013 0.490181 1.87061 0.486816 2.12427V24.9557C0.490181 25.2094 0.541894 25.4598 0.639001 25.6929C0.736109 25.9259 0.876709 26.1368 1.05277 26.3137C1.22884 26.4906 1.43691 26.6299 1.66512 26.7238C1.89333 26.8176 2.1372 26.8641 2.38281 26.8605H24.2319C24.4775 26.8641 24.7213 26.8176 24.9495 26.7238C25.1777 26.6299 25.3858 26.4906 25.5619 26.3137C25.7379 26.1368 25.8786 25.9259 25.9757 25.6929C26.0728 25.4598 26.1245 25.2094 26.1278 24.9557V2.12427C26.1245 1.87061 26.0728 1.62013 25.9757 1.38712C25.8786 1.15411 25.7379 0.943135 25.5619 0.76625C25.3858 0.589364 25.1777 0.45003 24.9495 0.356205C24.7213 0.26238 24.4775 0.215902 24.2319 0.219425ZM8.26425 22.518H4.39488V10.5295H8.26425V22.518ZM6.32957 8.85115C5.79593 8.85115 5.28415 8.63222 4.90682 8.24251C4.52948 7.85281 4.31749 7.32426 4.31749 6.77314C4.31749 6.22202 4.52948 5.69347 4.90682 5.30377C5.28415 4.91407 5.79593 4.69513 6.32957 4.69513C6.61293 4.66194 6.89988 4.69094 7.17164 4.78023C7.44339 4.86952 7.69383 5.01708 7.90654 5.21325C8.11925 5.40943 8.28943 5.64979 8.40596 5.9186C8.52249 6.18742 8.58272 6.47862 8.58272 6.77314C8.58272 7.06766 8.52249 7.35887 8.40596 7.62768C8.28943 7.89649 8.11925 8.13686 7.90654 8.33303C7.69383 8.52921 7.44339 8.67677 7.17164 8.76605C6.89988 8.85534 6.61293 8.88434 6.32957 8.85115ZM22.2198 22.518H18.3504V16.0842C18.3504 14.4724 17.7958 13.4201 16.3899 13.4201C15.9548 13.4234 15.5312 13.5643 15.176 13.8239C14.8209 14.0836 14.5513 14.4493 14.4037 14.872C14.3027 15.1851 14.259 15.5149 14.2747 15.8444V22.5047H10.4053C10.4053 22.5047 10.4053 11.6085 10.4053 10.5162H14.2747V12.2079C14.6262 11.578 15.1374 11.0591 15.7533 10.707C16.3693 10.3549 17.0665 10.183 17.77 10.2098C20.3496 10.2098 22.2198 11.9282 22.2198 15.618V22.518Z" fill="black"/>
</svg>
